<?xml version="1.0" standalone="yes"?>
<svg xmlns="http://www.w3.org/2000/svg" width="512" height="512">
<path style="fill:#ffffff; stroke:none;" d="M0 0L0 512L78 512L78 511C68.612 503.434 71 490.885 71 480L71 400L71 102L71 30C71 19.5402 69.0045 8.25003 78 1L54 0L0 0z"/>
<path style="fill:#010101; stroke:none;" d="M441 153L334 153C316.993 153 299.233 155.547 286.44 141.829C274.89 129.445 277 112.623 277 97L277 0L128 0L91 0C85.873 0 79.4164 -1.05896 75.2276 2.57251C68.0595 8.78693 71 24.5485 71 33L71 116L71 404L71 478C71 486.454 68.3657 500.621 73.7276 507.811C78.0439 513.599 86.6949 512 93 512L145 512L360 512L418 512C424.865 512 434.703 513.884 438.86 506.906C443.357 499.358 441 486.447 441 478L441 409L441 153z"/>
<path style="fill:#ffffff; stroke:none;" d="M277 0L277 98C277 112.968 274.768 129.798 285.619 141.829C298.106 155.676 316.177 153 333 153L441 153L441 420L441 484C441 494.011 442.572 504.092 434 511L434 512L512 512L512 0L277 0z"/>
<path style="fill:#010101; stroke:none;" d="M301 26L301 98C301 105.513 298.305 119.684 303.514 125.772C308.839 131.995 324.574 129 332 129L412 129C405.031 119.113 393.961 110.938 385 102.83C369.114 88.4562 353.677 73.514 338 58.9105C326.823 48.4989 314.934 32.4885 301 26z"/>
<path style="fill:#ffffff; stroke:none;" d="M156 210L156 234L359 234L359 210L156 210M156 273L156 297L359 297L359 273L156 273M156 335L156 359L359 359L359 335L156 335M156 398L156 422L271 422L271 398L156 398z"/>
</svg>
